<svg width="192" height="192" viewBox="0 0 192 192" fill="none" xmlns="http://www.w3.org/2000/svg">
<path d="M152 0H39.9999C17.9086 0 0 17.9086 0 39.9999V152C0 174.091 17.9086 191.999 39.9999 191.999H152C174.091 191.999 191.999 174.091 191.999 152V39.9999C191.999 17.9086 174.091 0 152 0Z" fill="#5865F2"/>
<path d="M191.999 42.4496L170.115 83.8923C165.461 72.8055 160.534 62.5028 155.097 53.6452C150.341 45.898 142.168 41.1704 133.36 41.0528L55.9994 40C58.9394 48.8544 61.0874 58.2792 76.7125 57.9656H123.999C133.087 58.0468 141.523 61.1544 147.503 75.7379C149.804 81.3491 152.213 86.9095 154.827 92.3667L169.138 122.27L191.999 81.0323V42.4496Z" fill="white"/>
<path d="M130.055 62.6594C136.082 62.367 141.933 69.9513 147.641 83.8893C142.347 81.0505 136.49 79.6745 130.055 79.8073H89.8022C78.517 79.6353 75.4567 70.9529 72.0203 62.6594H130.055Z" fill="white"/>
<path d="M192 88.3813V126.352L169.529 167.999L142.759 114.514C137.284 101.058 125.136 99.1937 110.816 101.094C109.481 101.272 108.131 101.342 106.787 101.272C95.4287 100.693 93.1635 91.7933 89.8035 83.8921H134.373C135.693 83.8921 137.011 83.9765 138.317 84.1849C143.983 85.0869 149.215 87.9017 153.062 96.8137C153.64 98.1529 154.232 99.4865 154.863 100.799L168.942 130.029L192 88.3813Z" fill="white"/>
</svg>
