<svg width="48" height="48" viewBox="0 0 48 48" fill="none" xmlns="http://www.w3.org/2000/svg">
<rect width="48" height="48" rx="24" fill="#36393F"/>
<path d="M36 23.2222C36 22.6699 35.5523 22.2222 35 22.2222H26.7778C26.2255 22.2222 25.7778 21.7745 25.7778 21.2222V13C25.7778 12.4477 25.3301 12 24.7778 12H24.2222C23.6699 12 23.2222 12.4477 23.2222 13V21.2222C23.2222 21.7745 22.7745 22.2222 22.2222 22.2222H14C13.4477 22.2222 13 22.6699 13 23.2222V23.7778C13 24.3301 13.4477 24.7778 14 24.7778H22.2222C22.7745 24.7778 23.2222 25.2255 23.2222 25.7778V34C23.2222 34.5523 23.6699 35 24.2222 35H24.7778C25.3301 35 25.7778 34.5523 25.7778 34V25.7778C25.7778 25.2255 26.2255 24.7778 26.7778 24.7778H35C35.5523 24.7778 36 24.3301 36 23.7778V23.2222Z" fill="#3AA55D"/>
</svg>
