<svg width="48" height="48" viewBox="0 0 48 48" fill="none" xmlns="http://www.w3.org/2000/svg">
<rect width="48" height="48" rx="10" fill="#5865F2"/>
<path d="M48 10.6124L42.529 20.9731C41.3655 18.2014 40.1338 15.6257 38.7745 13.4113C37.5854 11.4745 35.5423 10.2926 33.3401 10.2632L14 10C14.735 12.2136 15.272 14.5698 19.1783 14.4914H31C33.2719 14.5117 35.3809 15.2886 36.876 18.9345C37.4511 20.3373 38.0534 21.7274 38.707 23.0917L42.2847 30.5676L48 20.2581V10.6124Z" fill="white"/>
<path d="M32.5141 15.6649C34.0209 15.5918 35.4836 17.4879 36.9105 20.9724C35.5871 20.2627 34.1229 19.9187 32.5141 19.9519H22.4508C19.6295 19.9089 18.8644 17.7383 18.0053 15.6649H32.5141Z" fill="white"/>
<path d="M48 22.0954V31.588L42.3822 42L35.6898 28.6285C34.3209 25.2646 31.2839 24.7985 27.704 25.2737C27.3702 25.3182 27.0328 25.3355 26.6968 25.3182C23.8571 25.1734 23.2908 22.9484 22.4508 20.9731H33.5932C33.9233 20.9731 34.2527 20.9942 34.5791 21.0463C35.9957 21.2718 37.3037 21.9755 38.2654 24.2035C38.4099 24.5383 38.5581 24.8717 38.7158 25.1998L42.2355 32.5074L48 22.0954Z" fill="white"/>
</svg>
